# xmcd
#
# Track frame offsets:
# 150
# 12587
# 33400
# 62274
# 80958
# 101556
# 123174
# 141844
# 161936
# 184521
#
# Disc length: 2777 seconds
#
#
# Revision: 1
# Processed by: cddbd v1.5PL3 Copyright (c) Steve Scherf et al.
# Submitted via: FreeRIP 2.70 
#
DISCID=830ad70a
DTITLE=John Ussery and the Full-Tilt Blues Band - Cryin' and Screamin'
DYEAR=1900
DGENRE=Blues
TTITLE0=My, My Baby, Bye, Bye
TTITLE1=Ain't You Too Cruel
TTITLE2=Did You Ever Love A Woman
TTITLE3=I'm Your Man
TTITLE4=I Been Pickin' Em Up
TTITLE5=Cryin' and Screamin'
TTITLE6=Life Is A Bitch
TTITLE7=Somebody's Lovin' My Woman
TTITLE8=One More Shot Of Tears
TTITLE9=You Lose
EXTD=ID3G: 0
EXTT0=
EXTT1=
EXTT2=
EXTT3=
EXTT4=
EXTT5=
EXTT6=
EXTT7=
EXTT8=
EXTT9=
PLAYORDER=
